<?xml version="1.0" encoding="UTF-8"?>
<!DOCTYPE svg PUBLIC "-//W3C//DTD SVG 1.1//EN" "http://www.w3.org/Graphics/SVG/1.1/DTD/svg11.dtd">
<svg xmlns="http://www.w3.org/2000/svg" version="1.1" width="512px" height="512px" style="shape-rendering:geometricPrecision; text-rendering:geometricPrecision; image-rendering:optimizeQuality; fill-rule:evenodd; clip-rule:evenodd" xmlns:xlink="http://www.w3.org/1999/xlink">
<g><path style="opacity:0.991" fill="#e9f5ff" d="M 440.5,-0.5 C 457.167,-0.5 473.833,-0.5 490.5,-0.5C 504.185,-0.147984 511.185,6.85202 511.5,20.5C 511.5,37.1667 511.5,53.8333 511.5,70.5C 509.218,95.5147 504.551,120.181 497.5,144.5C 453.584,102.084 410.084,59.0845 367,15.5C 366.536,14.9056 366.369,14.2389 366.5,13.5C 390.819,6.44902 415.486,1.78235 440.5,-0.5 Z"/></g>
<g><path style="opacity:0.995" fill="#02bdff" d="M 366.5,13.5 C 366.369,14.2389 366.536,14.9056 367,15.5C 410.084,59.0845 453.584,102.084 497.5,144.5C 495.095,153.715 492.095,162.715 488.5,171.5C 487.883,171.611 487.383,171.944 487,172.5C 437.5,123 388,73.5 338.5,24C 339.056,23.6174 339.389,23.1174 339.5,22.5C 348.285,18.9051 357.285,15.9051 366.5,13.5 Z"/></g>
<g><path style="opacity:0.996" fill="#06b9ff" d="M 339.5,22.5 C 339.389,23.1174 339.056,23.6174 338.5,24C 388,73.5 437.5,123 487,172.5C 487.383,171.944 487.883,171.611 488.5,171.5C 486.287,178.916 483.287,185.916 479.5,192.5C 456.535,170.035 433.701,147.368 411,124.5C 410.601,124.728 410.435,125.062 410.5,125.5C 403.833,115.5 395.5,107.167 385.5,100.5C 364.375,77.8666 342.375,55.3666 319.5,33C 318.552,32.5172 317.552,32.3505 316.5,32.5C 323.748,28.3802 331.415,25.0469 339.5,22.5 Z"/></g>
<g><path style="opacity:0.996" fill="#0cb7ff" d="M 316.5,32.5 C 317.552,32.3505 318.552,32.5172 319.5,33C 342.375,55.3666 364.375,77.8666 385.5,100.5C 374.347,95.6701 362.68,93.6701 350.5,94.5C 352.969,93.6829 355.635,93.1829 358.5,93C 339.913,74.9151 321.913,56.4151 304.5,37.5C 308.266,35.2839 312.266,33.6172 316.5,32.5 Z"/></g>
<g><path style="opacity:0.995" fill="#0bb3ff" d="M 304.5,37.5 C 321.913,56.4151 339.913,74.9151 358.5,93C 355.635,93.1829 352.969,93.6829 350.5,94.5C 342.642,95.2307 335.308,97.564 328.5,101.5C 311.86,85.527 295.527,69.1937 279.5,52.5C 287.549,47.1373 295.882,42.1373 304.5,37.5 Z"/></g>
<g><path style="opacity:0.994" fill="#0eafff" d="M 279.5,52.5 C 295.527,69.1937 311.86,85.527 328.5,101.5C 324.228,103.774 320.228,106.441 316.5,109.5C 300.868,93.3681 285.035,77.3681 269,61.5C 268.536,60.9056 268.369,60.2389 268.5,59.5C 271.894,56.7795 275.561,54.4462 279.5,52.5 Z"/></g>
<g><path style="opacity:0.996" fill="#11abff" d="M 268.5,59.5 C 268.369,60.2389 268.536,60.9056 269,61.5C 285.035,77.3681 300.868,93.3681 316.5,109.5C 307.93,117.976 301.93,127.976 298.5,139.5C 278.833,120.167 259.167,100.833 239.5,81.5C 248.575,73.4301 258.242,66.0968 268.5,59.5 Z"/></g>
<g><path style="opacity:0.996" fill="#16a5ff" d="M 239.5,81.5 C 259.167,100.833 278.833,120.167 298.5,139.5C 293.611,171.223 305.278,194.39 333.5,209C 345.487,213.556 357.82,214.722 370.5,212.5C 389.965,231.465 409.299,250.632 428.5,270C 429.094,270.464 429.761,270.631 430.5,270.5C 422.867,279.8 414.534,288.467 405.5,296.5C 342.167,232.5 278.5,168.833 214.5,105.5C 222.2,96.799 230.533,88.799 239.5,81.5 Z"/></g>
<g><path style="opacity:1" fill="#e9f5ff" d="M 350.5,94.5 C 362.68,93.6701 374.347,95.6701 385.5,100.5C 395.5,107.167 403.833,115.5 410.5,125.5C 415.587,136.605 417.587,148.272 416.5,160.5C 415.706,168.35 413.372,175.683 409.5,182.5C 407.226,186.772 404.559,190.772 401.5,194.5C 392.793,203.352 382.459,209.352 370.5,212.5C 357.82,214.722 345.487,213.556 333.5,209C 305.278,194.39 293.611,171.223 298.5,139.5C 301.93,127.976 307.93,117.976 316.5,109.5C 320.228,106.441 324.228,103.774 328.5,101.5C 335.308,97.564 342.642,95.2307 350.5,94.5 Z"/></g>
<g><path style="opacity:0.998" fill="#1a9fff" d="M 214.5,105.5 C 278.5,168.833 342.167,232.5 405.5,296.5C 398.093,305.243 389.76,312.91 380.5,319.5C 379.761,319.631 379.094,319.464 378.5,319C 315.965,256.299 253.299,193.799 190.5,131.5C 197.579,122.032 205.579,113.365 214.5,105.5 Z"/></g>
<g><path style="opacity:0.997" fill="#0db7ff" d="M 479.5,192.5 C 478.048,197.403 476.048,202.07 473.5,206.5C 454.585,189.087 436.085,171.087 418,152.5C 417.817,155.365 417.317,158.031 416.5,160.5C 417.587,148.272 415.587,136.605 410.5,125.5C 410.435,125.062 410.601,124.728 411,124.5C 433.701,147.368 456.535,170.035 479.5,192.5 Z"/></g>
<g><path style="opacity:0.997" fill="#1e9aff" d="M 190.5,131.5 C 253.299,193.799 315.965,256.299 378.5,319C 379.094,319.464 379.761,319.631 380.5,319.5C 375.821,324.178 370.821,328.511 365.5,332.5C 337.54,303.034 308.707,273.7 279,244.5C 278.601,244.728 278.435,245.062 278.5,245.5C 274.5,240.833 270.167,236.5 265.5,232.5C 265.938,232.565 266.272,232.399 266.5,232C 237.298,202.965 208.298,173.799 179.5,144.5C 182.798,139.868 186.464,135.534 190.5,131.5 Z"/></g>
<g><path style="opacity:0.999" fill="#2297ff" d="M 179.5,144.5 C 208.298,173.799 237.298,202.965 266.5,232C 266.272,232.399 265.938,232.565 265.5,232.5C 253.493,225.785 240.826,224.118 227.5,227.5C 227.611,226.883 227.944,226.383 228.5,226C 207.582,204.58 186.249,183.747 164.5,163.5C 167.417,159.348 170.584,155.348 174,151.5C 174.791,150.255 175.291,148.922 175.5,147.5C 176.833,146.5 178.167,145.5 179.5,144.5 Z"/></g>
<g><path style="opacity:0.99" fill="#d2ebff" d="M 175.5,147.5 C 175.291,148.922 174.791,150.255 174,151.5C 170.584,155.348 167.417,159.348 164.5,163.5C 160.53,168.476 156.53,173.476 152.5,178.5C 149.253,182.659 146.253,186.992 143.5,191.5C 142.833,192.167 142.167,192.833 141.5,193.5C 128.167,180.833 115.167,167.833 102.5,154.5C 126.062,145.517 150.395,143.183 175.5,147.5 Z"/></g>
<g><path style="opacity:0.996" fill="#0cb3ff" d="M 473.5,206.5 C 468.908,216.031 463.574,225.031 457.5,233.5C 457.649,232.448 457.483,231.448 457,230.5C 440.938,214.605 425.104,198.605 409.5,182.5C 413.372,175.683 415.706,168.35 416.5,160.5C 417.317,158.031 417.817,155.365 418,152.5C 436.085,171.087 454.585,189.087 473.5,206.5 Z"/></g>
<g><path style="opacity:0.995" fill="#cae8ff" d="M 102.5,154.5 C 115.167,167.833 128.167,180.833 141.5,193.5C 136.167,201.5 130.833,209.5 125.5,217.5C 108.585,202.088 92.0852,186.088 76,169.5C 75.5357,168.906 75.369,168.239 75.5,167.5C 83.7697,161.867 92.7697,157.533 102.5,154.5 Z"/></g>
<g><path style="opacity:1" fill="#2493ff" d="M 164.5,163.5 C 186.249,183.747 207.582,204.58 228.5,226C 227.944,226.383 227.611,226.883 227.5,227.5C 224.088,228.075 221.088,229.408 218.5,231.5C 215.833,233.167 213.167,234.833 210.5,236.5C 191.5,216.833 172.167,197.5 152.5,178.5C 156.53,173.476 160.53,168.476 164.5,163.5 Z"/></g>
<g><path style="opacity:0.995" fill="#c4e5ff" d="M 75.5,167.5 C 75.369,168.239 75.5357,168.906 76,169.5C 92.0852,186.088 108.585,202.088 125.5,217.5C 124.4,218.605 123.733,219.938 123.5,221.5C 118.439,228.566 113.772,235.899 109.5,243.5C 89.8333,224.167 70.1667,204.833 50.5,185.5C 57.7114,177.957 66.0448,171.957 75.5,167.5 Z"/></g>
<g><path style="opacity:1" fill="#2791ff" d="M 152.5,178.5 C 172.167,197.5 191.5,216.833 210.5,236.5C 207.167,240.5 203.5,244.167 199.5,247.5C 182.087,228.585 164.087,210.085 145.5,192C 144.906,191.536 144.239,191.369 143.5,191.5C 146.253,186.992 149.253,182.659 152.5,178.5 Z"/></g>
<g><path style="opacity:0.994" fill="#0eafff" d="M 409.5,182.5 C 425.104,198.605 440.938,214.605 457,230.5C 457.483,231.448 457.649,232.448 457.5,233.5C 455.646,237.221 453.313,240.554 450.5,243.5C 434.5,226.833 418.167,210.5 401.5,194.5C 404.559,190.772 407.226,186.772 409.5,182.5 Z"/></g>
<g><path style="opacity:0.995" fill="#bee3ff" d="M 50.5,185.5 C 70.1667,204.833 89.8333,224.167 109.5,243.5C 108.424,246.648 107.091,249.648 105.5,252.5C 102.649,257.541 100.316,262.875 98.5,268.5C 97.8826,268.611 97.3826,268.944 97,269.5C 75.2488,247.247 53.0821,225.58 30.5,204.5C 36.5352,197.464 43.2018,191.131 50.5,185.5 Z"/></g>
<g><path style="opacity:1" fill="#2a8cff" d="M 143.5,191.5 C 144.239,191.369 144.906,191.536 145.5,192C 164.087,210.085 182.087,228.585 199.5,247.5C 199.167,248.167 198.833,248.833 198.5,249.5C 191.167,256.167 184.167,263.167 177.5,270.5C 176.5,271.167 175.5,271.833 174.5,272.5C 158.754,255.252 142.421,238.419 125.5,222C 124.906,221.536 124.239,221.369 123.5,221.5C 123.733,219.938 124.4,218.605 125.5,217.5C 130.833,209.5 136.167,201.5 141.5,193.5C 142.167,192.833 142.833,192.167 143.5,191.5 Z"/></g>
<g><path style="opacity:0.996" fill="#11abff" d="M 401.5,194.5 C 418.167,210.5 434.5,226.833 450.5,243.5C 444.629,253.045 437.962,262.045 430.5,270.5C 429.761,270.631 429.094,270.464 428.5,270C 409.299,250.632 389.965,231.465 370.5,212.5C 382.459,209.352 392.793,203.352 401.5,194.5 Z"/></g>
<g><path style="opacity:0.989" fill="#b8e1ff" d="M 30.5,204.5 C 53.0821,225.58 75.2488,247.247 97,269.5C 97.3826,268.944 97.8826,268.611 98.5,268.5C 98.414,272.319 99.0807,275.985 100.5,279.5C 88.3796,270.074 74.7129,266.74 59.5,269.5C 45.5352,255.035 31.3685,240.701 17,226.5C 16.5357,225.906 16.369,225.239 16.5,224.5C 20.1846,217.125 24.8513,210.459 30.5,204.5 Z"/></g>
<g><path style="opacity:1" fill="#2f86ff" d="M 123.5,221.5 C 124.239,221.369 124.906,221.536 125.5,222C 142.421,238.419 158.754,255.252 174.5,272.5C 168.833,278.5 163.167,284.5 157.5,290.5C 155.167,292.5 152.833,294.5 150.5,296.5C 136.115,281.114 121.115,266.448 105.5,252.5C 107.091,249.648 108.424,246.648 109.5,243.5C 113.772,235.899 118.439,228.566 123.5,221.5 Z"/></g>
<g><path style="opacity:0.985" fill="#b1deff" d="M 16.5,224.5 C 16.369,225.239 16.5357,225.906 17,226.5C 31.3685,240.701 45.5352,255.035 59.5,269.5C 50.2906,273.112 41.9573,278.279 34.5,285C 27.5752,287.078 21.4086,285.578 16,280.5C 4.69716,261.736 4.86383,243.069 16.5,224.5 Z"/></g>
<g><path style="opacity:1" fill="#d6edff" d="M 265.5,232.5 C 270.167,236.5 274.5,240.833 278.5,245.5C 285.732,257.363 287.399,270.03 283.5,283.5C 282.538,286.739 281.205,289.739 279.5,292.5C 258.918,273.42 238.751,253.753 219,233.5C 218.536,232.906 218.369,232.239 218.5,231.5C 221.088,229.408 224.088,228.075 227.5,227.5C 240.826,224.118 253.493,225.785 265.5,232.5 Z"/></g>
<g><path style="opacity:1" fill="#d1ebff" d="M 218.5,231.5 C 218.369,232.239 218.536,232.906 219,233.5C 238.751,253.753 258.918,273.42 279.5,292.5C 277.833,295.167 276.167,297.833 274.5,300.5C 270.5,303.833 266.833,307.5 263.5,311.5C 262.833,311.833 262.167,312.167 261.5,312.5C 240.251,292.753 219.418,272.42 199,251.5C 198.536,250.906 198.369,250.239 198.5,249.5C 198.833,248.833 199.167,248.167 199.5,247.5C 203.5,244.167 207.167,240.5 210.5,236.5C 213.167,234.833 215.833,233.167 218.5,231.5 Z"/></g>
<g><path style="opacity:1" fill="#2297ff" d="M 365.5,332.5 C 364.833,333.5 364.167,334.5 363.5,335.5C 362.078,335.709 360.745,336.209 359.5,337C 355.652,340.416 351.652,343.583 347.5,346.5C 327.253,324.751 306.42,303.418 285,282.5C 284.617,283.056 284.117,283.389 283.5,283.5C 287.399,270.03 285.732,257.363 278.5,245.5C 278.435,245.062 278.601,244.728 279,244.5C 308.707,273.7 337.54,303.034 365.5,332.5 Z"/></g>
<g><path style="opacity:1" fill="#cbe8ff" d="M 198.5,249.5 C 198.369,250.239 198.536,250.906 199,251.5C 219.418,272.42 240.251,292.753 261.5,312.5C 254.833,319.833 247.833,326.833 240.5,333.5C 219.167,312.833 198.167,291.833 177.5,270.5C 184.167,263.167 191.167,256.167 198.5,249.5 Z"/></g>
<g><path style="opacity:0.998" fill="#3481ff" d="M 105.5,252.5 C 121.115,266.448 136.115,281.114 150.5,296.5C 146.5,300.833 142.5,305.167 138.5,309.5C 137.078,310.925 135.411,311.925 133.5,312.5C 122.167,301.833 111.167,290.833 100.5,279.5C 99.0807,275.985 98.414,272.319 98.5,268.5C 100.316,262.875 102.649,257.541 105.5,252.5 Z"/></g>
<g><path style="opacity:1" fill="#c4e6ff" d="M 177.5,270.5 C 198.167,291.833 219.167,312.833 240.5,333.5C 239.833,334.5 239.167,335.5 238.5,336.5C 232.5,342.167 226.5,347.833 220.5,353.5C 199.251,333.753 178.418,313.42 158,292.5C 157.536,291.906 157.369,291.239 157.5,290.5C 163.167,284.5 168.833,278.5 174.5,272.5C 175.5,271.833 176.5,271.167 177.5,270.5 Z"/></g>
<g><path style="opacity:1" fill="#2494ff" d="M 347.5,346.5 C 342.722,350.729 337.722,354.729 332.5,358.5C 313.5,338.833 294.167,319.5 274.5,300.5C 276.167,297.833 277.833,295.167 279.5,292.5C 281.205,289.739 282.538,286.739 283.5,283.5C 284.117,283.389 284.617,283.056 285,282.5C 306.42,303.418 327.253,324.751 347.5,346.5 Z"/></g>
<g><path style="opacity:1" fill="#bee3ff" d="M 157.5,290.5 C 157.369,291.239 157.536,291.906 158,292.5C 178.418,313.42 199.251,333.753 220.5,353.5C 218.167,356.167 215.833,358.833 213.5,361.5C 209.5,365.167 205.5,368.833 201.5,372.5C 180.251,352.753 159.418,332.42 139,311.5C 138.536,310.906 138.369,310.239 138.5,309.5C 142.5,305.167 146.5,300.833 150.5,296.5C 152.833,294.5 155.167,292.5 157.5,290.5 Z"/></g>
<g><path style="opacity:1" fill="#2791ff" d="M 274.5,300.5 C 294.167,319.5 313.5,338.833 332.5,358.5C 328.442,361.89 324.109,364.89 319.5,367.5C 302.087,348.585 284.087,330.085 265.5,312C 264.906,311.536 264.239,311.369 263.5,311.5C 266.833,307.5 270.5,303.833 274.5,300.5 Z"/></g>
<g><path style="opacity:1" fill="#2a8cff" d="M 263.5,311.5 C 264.239,311.369 264.906,311.536 265.5,312C 284.087,330.085 302.087,348.585 319.5,367.5C 319.167,368.5 318.5,369.167 317.5,369.5C 309.81,374.866 302.143,380.199 294.5,385.5C 292.938,385.733 291.605,386.4 290.5,387.5C 273.782,369.782 256.449,352.782 238.5,336.5C 239.167,335.5 239.833,334.5 240.5,333.5C 247.833,326.833 254.833,319.833 261.5,312.5C 262.167,312.167 262.833,311.833 263.5,311.5 Z"/></g>
<g><path style="opacity:0.995" fill="#b7e0ff" d="M 138.5,309.5 C 138.369,310.239 138.536,310.906 139,311.5C 159.418,332.42 180.251,352.753 201.5,372.5C 200.075,373.922 199.075,375.589 198.5,377.5C 193.443,382.562 188.11,387.228 182.5,391.5C 161.167,370.833 140.167,349.833 119.5,328.5C 123.772,322.89 128.438,317.557 133.5,312.5C 135.411,311.925 137.078,310.925 138.5,309.5 Z"/></g>
<g><path style="opacity:0.989" fill="#b2deff" d="M 119.5,328.5 C 140.167,349.833 161.167,370.833 182.5,391.5C 174.757,397.859 165.757,400.859 155.5,400.5C 131.92,399.295 117.087,387.295 111,364.5C 109.717,354.9 110.717,345.567 114,336.5C 115.306,333.379 117.14,330.713 119.5,328.5 Z"/></g>
<g><path style="opacity:1" fill="#2f86ff" d="M 238.5,336.5 C 256.449,352.782 273.782,369.782 290.5,387.5C 282.964,392.432 275.297,397.099 267.5,401.5C 264.86,402.82 262.193,404.153 259.5,405.5C 245.369,390.868 231.035,376.368 216.5,362C 215.552,361.517 214.552,361.351 213.5,361.5C 215.833,358.833 218.167,356.167 220.5,353.5C 226.5,347.833 232.5,342.167 238.5,336.5 Z"/></g>
<g><path style="opacity:0.992" fill="#d2ebff" d="M 363.5,335.5 C 367.817,360.605 365.483,384.938 356.5,408.5C 343.167,395.833 330.167,382.833 317.5,369.5C 318.5,369.167 319.167,368.5 319.5,367.5C 324.109,364.89 328.442,361.89 332.5,358.5C 337.722,354.729 342.722,350.729 347.5,346.5C 351.652,343.583 355.652,340.416 359.5,337C 360.745,336.209 362.078,335.709 363.5,335.5 Z"/></g>
<g><path style="opacity:0.966" fill="#436dff" d="M 47.5,400.5 C 47.719,399.325 47.3857,398.325 46.5,397.5C 40.0355,390.85 33.3688,384.516 26.5,378.5C 31.7043,372.129 37.7043,366.629 44.5,362C 60.2807,360.113 66.7807,366.946 64,382.5C 59.3711,389.296 53.8711,395.296 47.5,400.5 Z"/></g>
<g><path style="opacity:0.998" fill="#3481ff" d="M 213.5,361.5 C 214.552,361.351 215.552,361.517 216.5,362C 231.035,376.368 245.369,390.868 259.5,405.5C 253.952,408.107 248.285,410.44 242.5,412.5C 238.633,412.758 234.966,412.092 231.5,410.5C 220.167,399.833 209.167,388.833 198.5,377.5C 199.075,375.589 200.075,373.922 201.5,372.5C 205.5,368.833 209.5,365.167 213.5,361.5 Z"/></g>
<g><path style="opacity:0.994" fill="#cae8ff" d="M 317.5,369.5 C 330.167,382.833 343.167,395.833 356.5,408.5C 353.347,418.994 348.68,428.66 342.5,437.5C 326.754,420.252 310.421,403.419 293.5,387C 294.056,386.617 294.389,386.117 294.5,385.5C 302.143,380.199 309.81,374.866 317.5,369.5 Z"/></g>
<g><path style="opacity:0.972" fill="#4768ff" d="M 26.5,378.5 C 33.3688,384.516 40.0355,390.85 46.5,397.5C 47.3857,398.325 47.719,399.325 47.5,400.5C 43.4466,406.396 38.1133,410.563 31.5,413C 17.4545,413.283 11.6211,406.449 14,392.5C 17.2904,387.043 21.4571,382.377 26.5,378.5 Z"/></g>
<g><path style="opacity:0.995" fill="#c4e5ff" d="M 294.5,385.5 C 294.389,386.117 294.056,386.617 293.5,387C 310.421,403.419 326.754,420.252 342.5,437.5C 337.983,446.017 332.317,453.683 325.5,460.5C 306.167,440.833 286.833,421.167 267.5,401.5C 275.297,397.099 282.964,392.432 290.5,387.5C 291.605,386.4 292.938,385.733 294.5,385.5 Z"/></g>
<g><path style="opacity:0.994" fill="#bee3ff" d="M 267.5,401.5 C 286.833,421.167 306.167,440.833 325.5,460.5C 320.203,467.464 314.203,473.798 307.5,479.5C 285.368,457.868 263.368,436.035 241.5,414C 242.056,413.617 242.389,413.117 242.5,412.5C 248.285,410.44 253.952,408.107 259.5,405.5C 262.193,404.153 264.86,402.82 267.5,401.5 Z"/></g>
<g><path style="opacity:0.967" fill="#436dff" d="M 91.5,441.5 C 83.8255,434.97 76.4922,427.97 69.5,420.5C 74.33,414.837 79.6633,409.67 85.5,405C 101.014,401.516 108.18,407.682 107,423.5C 103.117,430.554 97.9506,436.554 91.5,441.5 Z"/></g>
<g><path style="opacity:0.991" fill="#b8e1ff" d="M 231.5,410.5 C 234.966,412.092 238.633,412.758 242.5,412.5C 242.389,413.117 242.056,413.617 241.5,414C 263.368,436.035 285.368,457.868 307.5,479.5C 300.913,485.8 293.58,491.133 285.5,495.5C 271.167,480.5 256.5,465.833 241.5,451.5C 244.26,436.287 240.926,422.62 231.5,410.5 Z"/></g>
<g><path style="opacity:0.986" fill="#4766ff" d="M 69.5,420.5 C 76.4922,427.97 83.8255,434.97 91.5,441.5C 83.8333,449.833 75.8333,457.833 67.5,465.5C 60.1091,458.113 53.1091,450.446 46.5,442.5C 53.5341,434.465 61.2007,427.132 69.5,420.5 Z"/></g>
<g><path style="opacity:0.976" fill="#446cff" d="M 132.5,485.5 C 125.891,477.554 118.891,469.887 111.5,462.5C 116.372,456.461 122.039,451.295 128.5,447C 144.616,444.45 151.45,451.283 149,467.5C 144.371,474.296 138.871,480.296 132.5,485.5 Z"/></g>
<g><path style="opacity:0.986" fill="#4e60ff" d="M 46.5,442.5 C 53.1091,450.446 60.1091,458.113 67.5,465.5C 57.8333,475.833 47.8333,485.833 37.5,495.5C 30.4729,487.806 23.1396,480.473 15.5,473.5C 25.5,462.833 35.8333,452.5 46.5,442.5 Z"/></g>
<g><path style="opacity:0.984" fill="#b2deff" d="M 241.5,451.5 C 256.5,465.833 271.167,480.5 285.5,495.5C 266.975,506.15 248.642,505.983 230.5,495C 225.432,489.649 223.932,483.482 226,476.5C 232.721,469.043 237.888,460.709 241.5,451.5 Z"/></g>
<g><path style="opacity:0.971" fill="#4768ff" d="M 111.5,462.5 C 118.891,469.887 125.891,477.554 132.5,485.5C 128.055,492.615 121.721,496.948 113.5,498.5C 100.883,496.261 96.0496,488.927 99,476.5C 102.29,471.043 106.457,466.377 111.5,462.5 Z"/></g>
<g><path style="opacity:0.974" fill="#525aff" d="M 15.5,473.5 C 23.1396,480.473 30.4729,487.806 37.5,495.5C 32.4369,501.566 26.7703,506.899 20.5,511.5C 16.5,511.5 12.5,511.5 8.5,511.5C 7.01307,510.196 5.3464,509.03 3.5,508C 2.30342,505.985 0.970083,504.151 -0.5,502.5C -0.5,498.5 -0.5,494.5 -0.5,490.5C 4.10093,484.23 9.43427,478.563 15.5,473.5 Z"/></g>
</svg>
